<mxfile host="Electron" modified="2023-08-21T15:01:56.204Z" agent="5.0 (Windows NT 10.0; Win64; x64) AppleWebKit/537.36 (KHTML, like Gecko) draw.io/20.3.0 Chrome/104.0.5112.114 Electron/20.1.3 Safari/537.36" etag="YvnEs0tmknTHNPzVbBrI" compressed="false" version="20.3.0" type="device">
  <diagram name="ND0017" id="B2a05DhcRu3d1zNm3ssk">
    <mxGraphModel dx="1409" dy="963" grid="1" gridSize="2" guides="1" tooltips="1" connect="1" arrows="1" fold="1" page="1" pageScale="1" pageWidth="1169" pageHeight="827" math="0" shadow="0">
      <root>
        <mxCell id="NGd-z_g-m5v9OcJDIR9X-0" />
        <object label="Symbol" Width="6" Height="10" UoM="mm" id="NGd-z_g-m5v9OcJDIR9X-124">
          <mxCell style="locked=1;" parent="NGd-z_g-m5v9OcJDIR9X-0" />
        </object>
        <mxCell id="NGd-z_g-m5v9OcJDIR9X-125" value="" style="triangle;whiteSpace=wrap;html=1;fontFamily=Helvetica;fontSize=16;fillColor=#000000;rotation=-90;" parent="NGd-z_g-m5v9OcJDIR9X-124" vertex="1">
          <mxGeometry x="256" y="192" width="64" height="64" as="geometry" />
        </mxCell>
        <mxCell id="NGd-z_g-m5v9OcJDIR9X-126" value="" style="triangle;whiteSpace=wrap;html=1;fontFamily=Helvetica;fontSize=16;fillColor=#000000;flipH=1;" parent="NGd-z_g-m5v9OcJDIR9X-124" vertex="1">
          <mxGeometry x="288" y="160" width="64" height="64" as="geometry" />
        </mxCell>
        <mxCell id="NGd-z_g-m5v9OcJDIR9X-127" value="" style="endArrow=none;html=1;rounded=0;fontFamily=Helvetica;fontSize=16;" parent="NGd-z_g-m5v9OcJDIR9X-124" edge="1">
          <mxGeometry width="50" height="50" relative="1" as="geometry">
            <mxPoint x="288" y="192" as="sourcePoint" />
            <mxPoint x="288" y="96" as="targetPoint" />
          </mxGeometry>
        </mxCell>
        <mxCell id="xTRoZUs08kHD9xQhaLxZ-0" value="" style="endArrow=none;html=1;rounded=0;" parent="NGd-z_g-m5v9OcJDIR9X-124" edge="1">
          <mxGeometry width="50" height="50" relative="1" as="geometry">
            <mxPoint x="268" y="176" as="sourcePoint" />
            <mxPoint x="314" y="130" as="targetPoint" />
          </mxGeometry>
        </mxCell>
        <mxCell id="xTRoZUs08kHD9xQhaLxZ-1" value="" style="endArrow=none;html=1;rounded=0;" parent="NGd-z_g-m5v9OcJDIR9X-124" edge="1">
          <mxGeometry width="50" height="50" relative="1" as="geometry">
            <mxPoint x="272" y="152" as="sourcePoint" />
            <mxPoint x="306" y="118" as="targetPoint" />
          </mxGeometry>
        </mxCell>
        <mxCell id="xTRoZUs08kHD9xQhaLxZ-2" value="" style="endArrow=none;html=1;rounded=0;" parent="NGd-z_g-m5v9OcJDIR9X-124" edge="1">
          <mxGeometry width="50" height="50" relative="1" as="geometry">
            <mxPoint x="278" y="128" as="sourcePoint" />
            <mxPoint x="298" y="108" as="targetPoint" />
          </mxGeometry>
        </mxCell>
        <mxCell id="NGd-z_g-m5v9OcJDIR9X-128" value="Connection" style="" parent="NGd-z_g-m5v9OcJDIR9X-0" />
        <object label="Connection" PipingConnector="Y" LabelConnector="N" SignalConnector="N" Direction="0" AuxiliaryConnector="N" id="NGd-z_g-m5v9OcJDIR9X-129">
          <mxCell style="vsdxID=1407;fillColor=none;gradientColor=none;shape=stencil(rVFbDsIgEDwNnyQU4glqvcfGblsilmZBS28vZGMsxg9j/JvZmX1kR5g2TLCg0CpE8hdcbR8nYY5CaztPSDZmJEwnTDt4wpH8be6ZL1CcBV39vUxI3KdKh1YbswPTEzuBzlmiVGmKau9zUKM+jlJJQrJBko8QrZ+rrQ5oRJnXyMHBWElhRVx25ebnw/5zVvPFWRm83jxY5zilvf4eSy5xpKZ7AA==);strokeColor=#00FF00;strokeWidth=1;points=[[0.5,0.5,0,0,0]];labelBackgroundColor=none;rounded=0;html=1;whiteSpace=wrap;aspect=fixed;noLabel=1;snapToPoint=1;container=0;fontSize=16;fontFamily=Helvetica;" parent="NGd-z_g-m5v9OcJDIR9X-128" vertex="1">
            <mxGeometry x="346" y="186" width="12" height="12" as="geometry" />
          </mxCell>
        </object>
        <object label="Connection" PipingConnector="Y" LabelConnector="N" SignalConnector="N" Direction="270" AuxiliaryConnector="N" id="NGd-z_g-m5v9OcJDIR9X-130">
          <mxCell style="vsdxID=1407;fillColor=none;gradientColor=none;shape=stencil(rVFbDsIgEDwNnyQU4glqvcfGblsilmZBS28vZGMsxg9j/JvZmX1kR5g2TLCg0CpE8hdcbR8nYY5CaztPSDZmJEwnTDt4wpH8be6ZL1CcBV39vUxI3KdKh1YbswPTEzuBzlmiVGmKau9zUKM+jlJJQrJBko8QrZ+rrQ5oRJnXyMHBWElhRVx25ebnw/5zVvPFWRm83jxY5zilvf4eSy5xpKZ7AA==);strokeColor=#00FF00;strokeWidth=1;points=[[0.5,0.5,0,0,0]];labelBackgroundColor=none;rounded=0;html=1;whiteSpace=wrap;aspect=fixed;noLabel=1;snapToPoint=1;container=0;fontSize=16;fontFamily=Helvetica;" parent="NGd-z_g-m5v9OcJDIR9X-128" vertex="1">
            <mxGeometry x="282" y="250" width="12" height="12" as="geometry" />
          </mxCell>
        </object>
        <mxCell id="NGd-z_g-m5v9OcJDIR9X-135" value="Label" style="locked=1;" parent="NGd-z_g-m5v9OcJDIR9X-0" />
        <mxCell id="NGd-z_g-m5v9OcJDIR9X-137" value="Origo" style="locked=1;" parent="NGd-z_g-m5v9OcJDIR9X-0" />
        <object label="origo" id="NGd-z_g-m5v9OcJDIR9X-138">
          <mxCell style="vsdxID=1407;fillColor=none;gradientColor=none;shape=stencil(rVFbDsIgEDwNnyQU4glqvcfGblsilmZBS28vZGMsxg9j/JvZmX1kR5g2TLCg0CpE8hdcbR8nYY5CaztPSDZmJEwnTDt4wpH8be6ZL1CcBV39vUxI3KdKh1YbswPTEzuBzlmiVGmKau9zUKM+jlJJQrJBko8QrZ+rrQ5oRJnXyMHBWElhRVx25ebnw/5zVvPFWRm83jxY5zilvf4eSy5xpKZ7AA==);strokeColor=#ff0000;strokeWidth=1;points=[[0.5,0.5,0,0,0]];labelBackgroundColor=none;rounded=0;html=1;whiteSpace=wrap;aspect=fixed;noLabel=1;snapToPoint=1;" parent="NGd-z_g-m5v9OcJDIR9X-137" vertex="1">
            <mxGeometry x="284" y="188" width="7.874" height="7.87" as="geometry" />
          </mxCell>
        </object>
      </root>
    </mxGraphModel>
  </diagram>
</mxfile>
